<?xml version="1.0" standalone="no"?>
<!DOCTYPE svg PUBLIC "-//W3C//DTD SVG 20010904//EN"
 "http://www.w3.org/TR/2001/REC-SVG-20010904/DTD/svg10.dtd">
<svg version="1.0" xmlns="http://www.w3.org/2000/svg"
 width="240.000000pt" height="240.000000pt" viewBox="0 0 240.000000 240.000000"
 preserveAspectRatio="xMidYMid meet">
<metadata>
Created by potrace 1.14, written by Peter Selinger 2001-2017
</metadata>
<g transform="translate(0.000000,240.000000) scale(0.100000,-0.100000)"
fill="#000000" stroke="none">
<path d="M0 2091 l0 -310 98 2 97 2 0 198 0 197 25 1 c14 0 95 1 180 2 l155 2
1 108 1 107 -278 0 -279 0 0 -309z"/>
<path d="M1843 2293 l2 -108 173 -1 c95 -1 176 -4 180 -8 4 -4 7 -94 7 -199
l0 -192 98 -2 97 -1 0 309 0 309 -279 0 -280 0 2 -107z"/>
<path d="M350 1200 l0 -820 120 0 120 0 0 820 0 820 -120 0 -120 0 0 -820z"/>
<path d="M710 1200 l0 -820 63 0 64 0 0 820 1 820 -64 0 -64 0 0 -820z"/>
<path d="M1070 1200 l0 -820 125 0 125 0 0 820 0 820 -125 0 -125 0 0 -820z"/>
<path d="M1440 1200 l0 -820 180 0 180 0 0 820 0 820 -180 0 -180 0 0 -820z"/>
<path d="M1920 1200 l0 -820 65 0 65 0 0 820 0 820 -65 0 -65 0 0 -820z"/>
<path d="M6 613 c-3 -4 -6 -143 -6 -310 l0 -303 279 0 279 0 -1 109 -1 110
-141 -1 c-77 0 -158 0 -180 1 l-41 1 1 198 0 197 -91 2 c-51 1 -95 -1 -98 -4z"/>
<path d="M2209 611 c-1 -3 -2 -93 -3 -200 l-1 -194 -180 -1 -180 -1 0 -105 0
-105 278 -3 277 -2 0 308 0 309 -95 0 c-52 1 -96 -2 -96 -6z"/>
</g>
</svg>
